<svg id="visual" viewBox="0 0 960 100" width="960" height="100" xmlns="http://www.w3.org/2000/svg" xmlns:xlink="http://www.w3.org/1999/xlink" version="1.1"><rect x="0" y="0" width="960" height="100" fill="#f9f9f9"></rect><path d="M0 63L11.5 65.2C23 67.3 46 71.7 68.8 71.3C91.7 71 114.3 66 137.2 64.2C160 62.3 183 63.7 205.8 65C228.7 66.3 251.3 67.7 274.2 67.3C297 67 320 65 342.8 61.8C365.7 58.7 388.3 54.3 411.2 51C434 47.7 457 45.3 480 49.2C503 53 526 63 548.8 68.8C571.7 74.7 594.3 76.3 617.2 71C640 65.7 663 53.3 685.8 46.8C708.7 40.3 731.3 39.7 754.2 41C777 42.3 800 45.7 822.8 48.3C845.7 51 868.3 53 891.2 55.7C914 58.3 937 61.7 948.5 63.3L960 65L960 101L948.5 101C937 101 914 101 891.2 101C868.3 101 845.7 101 822.8 101C800 101 777 101 754.2 101C731.3 101 708.7 101 685.8 101C663 101 640 101 617.2 101C594.3 101 571.7 101 548.8 101C526 101 503 101 480 101C457 101 434 101 411.2 101C388.3 101 365.7 101 342.8 101C320 101 297 101 274.2 101C251.3 101 228.7 101 205.8 101C183 101 160 101 137.2 101C114.3 101 91.7 101 68.8 101C46 101 23 101 11.5 101L0 101Z" fill="#D78989" stroke-linecap="round" stroke-linejoin="miter"></path></svg>