<svg id="visual" viewBox="0 0 960 100" width="960" height="100" xmlns="http://www.w3.org/2000/svg" xmlns:xlink="http://www.w3.org/1999/xlink" version="1.1"><rect x="0" y="0" width="960" height="100" fill="#f9f9f9"></rect><path d="M0 51L11.5 50C23 49 46 47 68.8 44.5C91.7 42 114.3 39 137.2 38C160 37 183 38 205.8 41.3C228.7 44.7 251.3 50.3 274.2 49.5C297 48.7 320 41.3 342.8 39.5C365.7 37.7 388.3 41.3 411.2 43.3C434 45.3 457 45.7 480 42.5C503 39.3 526 32.7 548.8 33.7C571.7 34.7 594.3 43.3 617.2 48.2C640 53 663 54 685.8 55C708.7 56 731.3 57 754.2 51C777 45 800 32 822.8 31C845.7 30 868.3 41 891.2 47.2C914 53.3 937 54.7 948.5 55.3L960 56L960 0L948.5 0C937 0 914 0 891.2 0C868.3 0 845.7 0 822.8 0C800 0 777 0 754.2 0C731.3 0 708.7 0 685.8 0C663 0 640 0 617.2 0C594.3 0 571.7 0 548.8 0C526 0 503 0 480 0C457 0 434 0 411.2 0C388.3 0 365.7 0 342.8 0C320 0 297 0 274.2 0C251.3 0 228.7 0 205.8 0C183 0 160 0 137.2 0C114.3 0 91.7 0 68.8 0C46 0 23 0 11.5 0L0 0Z" fill="#D78989" stroke-linecap="round" stroke-linejoin="miter"></path></svg>